<mxfile host="app.diagrams.net" modified="2023-11-14T10:13:22.145Z" agent="Mozilla/5.0 (Windows NT 10.0; Win64; x64) AppleWebKit/537.36 (KHTML, like Gecko) Chrome/119.0.0.0 Safari/537.36" etag="xvbfQcDR9Kg5Gwawf7q2" version="22.1.0" type="device">
  <diagram name="Halaman-1" id="ccRDVC0_vIEzdrY-G-yX">
    <mxGraphModel dx="1674" dy="784" grid="1" gridSize="10" guides="1" tooltips="1" connect="1" arrows="1" fold="1" page="1" pageScale="1" pageWidth="827" pageHeight="1169" math="0" shadow="0">
      <root>
        <mxCell id="0" />
        <mxCell id="1" parent="0" />
        <mxCell id="sbLh2FPpm3FcbqSSLyIV-14" style="edgeStyle=orthogonalEdgeStyle;rounded=0;orthogonalLoop=1;jettySize=auto;html=1;entryX=0.5;entryY=0;entryDx=0;entryDy=0;" edge="1" parent="1" source="sbLh2FPpm3FcbqSSLyIV-1" target="sbLh2FPpm3FcbqSSLyIV-2">
          <mxGeometry relative="1" as="geometry">
            <Array as="points">
              <mxPoint x="414" y="200" />
              <mxPoint x="100" y="200" />
            </Array>
          </mxGeometry>
        </mxCell>
        <mxCell id="sbLh2FPpm3FcbqSSLyIV-15" style="edgeStyle=orthogonalEdgeStyle;rounded=0;orthogonalLoop=1;jettySize=auto;html=1;entryX=0.5;entryY=0;entryDx=0;entryDy=0;" edge="1" parent="1" source="sbLh2FPpm3FcbqSSLyIV-1" target="sbLh2FPpm3FcbqSSLyIV-3">
          <mxGeometry relative="1" as="geometry">
            <Array as="points">
              <mxPoint x="414" y="200" />
              <mxPoint x="300" y="200" />
            </Array>
          </mxGeometry>
        </mxCell>
        <mxCell id="sbLh2FPpm3FcbqSSLyIV-16" style="edgeStyle=orthogonalEdgeStyle;rounded=0;orthogonalLoop=1;jettySize=auto;html=1;entryX=0.5;entryY=0;entryDx=0;entryDy=0;" edge="1" parent="1" source="sbLh2FPpm3FcbqSSLyIV-1" target="sbLh2FPpm3FcbqSSLyIV-4">
          <mxGeometry relative="1" as="geometry">
            <Array as="points">
              <mxPoint x="414" y="200" />
              <mxPoint x="500" y="200" />
            </Array>
          </mxGeometry>
        </mxCell>
        <mxCell id="sbLh2FPpm3FcbqSSLyIV-17" style="edgeStyle=orthogonalEdgeStyle;rounded=0;orthogonalLoop=1;jettySize=auto;html=1;" edge="1" parent="1" source="sbLh2FPpm3FcbqSSLyIV-1" target="sbLh2FPpm3FcbqSSLyIV-5">
          <mxGeometry relative="1" as="geometry">
            <Array as="points">
              <mxPoint x="414" y="200" />
              <mxPoint x="700" y="200" />
            </Array>
          </mxGeometry>
        </mxCell>
        <mxCell id="sbLh2FPpm3FcbqSSLyIV-1" value="MENU UTAMA" style="rounded=0;whiteSpace=wrap;html=1;" vertex="1" parent="1">
          <mxGeometry x="354" y="110" width="120" height="60" as="geometry" />
        </mxCell>
        <mxCell id="sbLh2FPpm3FcbqSSLyIV-18" style="edgeStyle=orthogonalEdgeStyle;rounded=0;orthogonalLoop=1;jettySize=auto;html=1;entryX=0.5;entryY=0;entryDx=0;entryDy=0;" edge="1" parent="1" source="sbLh2FPpm3FcbqSSLyIV-2" target="sbLh2FPpm3FcbqSSLyIV-6">
          <mxGeometry relative="1" as="geometry" />
        </mxCell>
        <mxCell id="sbLh2FPpm3FcbqSSLyIV-2" value="Beranda" style="rounded=0;whiteSpace=wrap;html=1;" vertex="1" parent="1">
          <mxGeometry x="40" y="240" width="120" height="60" as="geometry" />
        </mxCell>
        <mxCell id="sbLh2FPpm3FcbqSSLyIV-3" value="Lihat Jadwal" style="rounded=0;whiteSpace=wrap;html=1;" vertex="1" parent="1">
          <mxGeometry x="240" y="240" width="120" height="60" as="geometry" />
        </mxCell>
        <mxCell id="sbLh2FPpm3FcbqSSLyIV-19" style="edgeStyle=orthogonalEdgeStyle;rounded=0;orthogonalLoop=1;jettySize=auto;html=1;entryX=0.5;entryY=0;entryDx=0;entryDy=0;" edge="1" parent="1" source="sbLh2FPpm3FcbqSSLyIV-4" target="sbLh2FPpm3FcbqSSLyIV-8">
          <mxGeometry relative="1" as="geometry" />
        </mxCell>
        <mxCell id="sbLh2FPpm3FcbqSSLyIV-4" value="Pemesanan" style="rounded=0;whiteSpace=wrap;html=1;" vertex="1" parent="1">
          <mxGeometry x="440" y="240" width="120" height="60" as="geometry" />
        </mxCell>
        <mxCell id="sbLh2FPpm3FcbqSSLyIV-5" value="Tiket saya" style="rounded=0;whiteSpace=wrap;html=1;" vertex="1" parent="1">
          <mxGeometry x="640" y="240" width="120" height="60" as="geometry" />
        </mxCell>
        <mxCell id="sbLh2FPpm3FcbqSSLyIV-6" value="Brosur-brosur&lt;br&gt;KAI ACCES" style="rounded=0;whiteSpace=wrap;html=1;" vertex="1" parent="1">
          <mxGeometry x="40" y="360" width="120" height="60" as="geometry" />
        </mxCell>
        <mxCell id="sbLh2FPpm3FcbqSSLyIV-20" style="edgeStyle=orthogonalEdgeStyle;rounded=0;orthogonalLoop=1;jettySize=auto;html=1;entryX=0.5;entryY=0;entryDx=0;entryDy=0;" edge="1" parent="1" source="sbLh2FPpm3FcbqSSLyIV-8" target="sbLh2FPpm3FcbqSSLyIV-9">
          <mxGeometry relative="1" as="geometry" />
        </mxCell>
        <mxCell id="sbLh2FPpm3FcbqSSLyIV-8" value="Formulir&amp;nbsp;&lt;br&gt;pemesanan&lt;br&gt;tiket kereta" style="rounded=0;whiteSpace=wrap;html=1;" vertex="1" parent="1">
          <mxGeometry x="440" y="360" width="120" height="60" as="geometry" />
        </mxCell>
        <mxCell id="sbLh2FPpm3FcbqSSLyIV-21" style="edgeStyle=orthogonalEdgeStyle;rounded=0;orthogonalLoop=1;jettySize=auto;html=1;entryX=0.5;entryY=0;entryDx=0;entryDy=0;" edge="1" parent="1" source="sbLh2FPpm3FcbqSSLyIV-9" target="sbLh2FPpm3FcbqSSLyIV-10">
          <mxGeometry relative="1" as="geometry" />
        </mxCell>
        <mxCell id="sbLh2FPpm3FcbqSSLyIV-9" value="Pilih tiket" style="rounded=0;whiteSpace=wrap;html=1;" vertex="1" parent="1">
          <mxGeometry x="440" y="480" width="120" height="60" as="geometry" />
        </mxCell>
        <mxCell id="sbLh2FPpm3FcbqSSLyIV-22" style="edgeStyle=orthogonalEdgeStyle;rounded=0;orthogonalLoop=1;jettySize=auto;html=1;entryX=0.5;entryY=0;entryDx=0;entryDy=0;" edge="1" parent="1" source="sbLh2FPpm3FcbqSSLyIV-10" target="sbLh2FPpm3FcbqSSLyIV-11">
          <mxGeometry relative="1" as="geometry" />
        </mxCell>
        <mxCell id="sbLh2FPpm3FcbqSSLyIV-10" value="Formulir&amp;nbsp;&lt;br&gt;data diri" style="rounded=0;whiteSpace=wrap;html=1;" vertex="1" parent="1">
          <mxGeometry x="440" y="600" width="120" height="60" as="geometry" />
        </mxCell>
        <mxCell id="sbLh2FPpm3FcbqSSLyIV-23" style="edgeStyle=orthogonalEdgeStyle;rounded=0;orthogonalLoop=1;jettySize=auto;html=1;entryX=0.5;entryY=0;entryDx=0;entryDy=0;" edge="1" parent="1" source="sbLh2FPpm3FcbqSSLyIV-11" target="sbLh2FPpm3FcbqSSLyIV-12">
          <mxGeometry relative="1" as="geometry" />
        </mxCell>
        <mxCell id="sbLh2FPpm3FcbqSSLyIV-11" value="Pilih kursi dan&lt;br&gt;gerbong" style="rounded=0;whiteSpace=wrap;html=1;" vertex="1" parent="1">
          <mxGeometry x="440" y="720" width="120" height="60" as="geometry" />
        </mxCell>
        <mxCell id="sbLh2FPpm3FcbqSSLyIV-24" style="edgeStyle=orthogonalEdgeStyle;rounded=0;orthogonalLoop=1;jettySize=auto;html=1;entryX=0.5;entryY=0;entryDx=0;entryDy=0;" edge="1" parent="1" source="sbLh2FPpm3FcbqSSLyIV-12" target="sbLh2FPpm3FcbqSSLyIV-13">
          <mxGeometry relative="1" as="geometry" />
        </mxCell>
        <mxCell id="sbLh2FPpm3FcbqSSLyIV-12" value="Informasi &lt;br&gt;pemesanan" style="rounded=0;whiteSpace=wrap;html=1;" vertex="1" parent="1">
          <mxGeometry x="440" y="840" width="120" height="60" as="geometry" />
        </mxCell>
        <mxCell id="sbLh2FPpm3FcbqSSLyIV-13" value="Bayar" style="rounded=0;whiteSpace=wrap;html=1;" vertex="1" parent="1">
          <mxGeometry x="440" y="960" width="120" height="60" as="geometry" />
        </mxCell>
      </root>
    </mxGraphModel>
  </diagram>
</mxfile>
